# xmcd
#
# Track frame offsets: 
#        150
#        26237
#        50652
#        75337
#        98772
#        116222
#        142447
#        166637
#        186315
#        203185
#        225760
#        249517
#
# Disc length: 3554 seconds
#
# Revision: 4
# Processed by: cddbd v1.5.2PL0 Copyright (c) Steve Scherf et al.
# Submitted via: ExactAudioCopy v1.0b3
#
DISCID=9f0de00c
DTITLE=Azúcar Negra - Sin Mirar Atrás
DYEAR=2004
DGENRE=Salsa
TTITLE0=3 de azúcar y dos de café
TTITLE1=Se fue la paloma
TTITLE2=Loco por tí
TTITLE3=Vengo de estreno
TTITLE4=Mi única vida
TTITLE5=Sin Mirar atrás
TTITLE6=Pregúntale a tu padrino
TTITLE7=A la negra le gusta
TTITLE8=Tú y yo, una misma cosa
TTITLE9=Sal de la esquina
TTITLE10=Te traicionó el subconciente
TTITLE11=Sin Mirar Atrás (balada)
EXTD=YEAR: 2004
EXTT0=
EXTT1=
EXTT2=
EXTT3=
EXTT4=
EXTT5=
EXTT6=
EXTT7=
EXTT8=
EXTT9=
EXTT10=
EXTT11=
PLAYORDER=
